<svg xmlns="http://www.w3.org/2000/svg" viewBox="0 0 520 128" role="img" aria-label="Nexora"><g fill="#000"><path d="M20 12h24l16 16v20H40v12H28L12 48V28c0-9 0-16 8-16z"/><path d="M108 12H84L68 28v20h20v12h12l16-12V28c0-9 0-16-8-16z"/><path d="M20 116h24l16-16V80H40V68H28L12 80v20c0 9 0 16 8 16z"/><path d="M108 116H84l-16-16V80h20V68h12l16 12v20c0 9 0 16-8 16z"/><text x="148" y="88" font-family="Inter,Arial,sans-serif" font-size="72" font-weight="650" letter-spacing="-3">Nexora</text></g></svg>
