<svg xmlns="http://www.w3.org/2000/svg" width="540" height="320" viewBox="0 0 540 320"><rect width="540" height="320" class="canvas"/><style>
  .canvas{fill:#fafbfc}.board{fill:#fff;stroke:#8d98a7;stroke-width:1.5}.thin{fill:none;stroke:#8d98a7;stroke-width:1.3}.shade{fill:#edf0f3;stroke:#8d98a7;stroke-width:1.1}.label{font:600 13px sans-serif;fill:#344054}.sub{font:11px sans-serif;fill:#667085}.ghost{stroke:#b7c0cb;stroke-width:5;stroke-linecap:round}.mini{stroke:#b7c0cb;stroke-width:3;stroke-linecap:round}.dot{fill:#aab4c1}
</style><g transform="translate(10 10)"><rect width="520" height="300" rx="12" class="board"/><text x="18" y="26" class="label">10 · Analytics and export</text><rect x="28" y="54" width="52" height="22" rx="3" class="thin"/><rect x="81" y="54" width="52" height="22" rx="3" class="shade"/><rect x="382" y="54" width="106" height="22" rx="3" class="thin"/><rect x="28" y="99" width="139" height="60" rx="5" class="thin"/><rect x="184" y="99" width="139" height="60" rx="5" class="thin"/><rect x="340" y="99" width="139" height="60" rx="5" class="thin"/><rect x="28" y="181" width="451" height="82" rx="5" class="thin"/><polyline points="49,240 108,222 167,230 225,204 288,219 353,194 454,213" class="thin" fill="none"/></g></svg>
