<svg xmlns="http://www.w3.org/2000/svg" width="1920" height="2460" viewBox="0 0 1920 2460">
  <style>
    .board{fill:#fbfcfe;stroke:#98a2b3;stroke-width:2}.page{fill:#fff;stroke:#667085;stroke-width:1.5}.panel{fill:#eef1f6;stroke:#aab3c2;stroke-width:1}.accent{fill:#d9ccf6;stroke:#7c4dcc;stroke-width:1.5}.button{fill:#667085}.line{stroke:#98a2b3;stroke-width:2;stroke-linecap:round}.title{font:700 22px sans-serif;fill:#25304a}.label{font:600 16px sans-serif;fill:#25304a}.meta{font:13px sans-serif;fill:#667085}.small{font:11px sans-serif;fill:#667085}
  </style>
  <rect width="1920" height="2460" fill="#eef1f7"/>
  <text x="80" y="70" class="title">Nexora · Low-fi wireframes · states and edge flows</text>
  <text x="80" y="98" class="meta">Supplement to nexora-wireframes.svg</text>

  <!-- 09 KB empty -->
  <g transform="translate(80 140)"><rect width="840" height="400" rx="18" class="board"/><text x="30" y="38" class="label">09 · Knowledge base empty state</text><rect x="20" y="60" width="145" height="320" rx="10" class="page"/><text x="42" y="96" class="label">Nexora</text><text x="42" y="150" class="meta">Knowledge</text><text x="195" y="100" class="title">Knowledge base</text><text x="195" y="130" class="meta">No knowledge sets yet</text><rect x="330" y="170" width="300" height="145" rx="14" class="page"/><rect x="445" y="192" width="70" height="50" rx="14" class="panel"/><text x="390" y="273" class="label">Create your first knowledge set</text><text x="382" y="296" class="small">Add documents before asking grounded questions</text><rect x="435" y="320" width="120" height="32" rx="8" class="accent"/><text x="454" y="341" class="small">＋ New set</text></g>

  <!-- 10 upload states -->
  <g transform="translate(1000 140)"><rect width="840" height="400" rx="18" class="board"/><text x="30" y="38" class="label">10 · Upload queue, processing and retry</text><text x="30" y="84" class="title">Company-Confirmation</text><rect x="30" y="105" width="780" height="70" rx="10" class="page"/><text x="50" y="134" class="label">▤ Scan.pdf</text><text x="50" y="156" class="small">Reading content · 40%</text><rect x="350" y="143" width="250" height="7" rx="4" class="accent"/><rect x="610" y="123" width="82" height="28" rx="12" class="panel"/><text x="630" y="142" class="small">40%</text><rect x="30" y="193" width="780" height="70" rx="10" class="page"/><text x="50" y="221" class="label">▤ Scanned-contract.pdf</text><text x="50" y="244" class="small">OCR failed · no provider configured</text><rect x="675" y="211" width="102" height="32" rx="8" class="accent"/><text x="698" y="232" class="small">Retry</text><rect x="30" y="281" width="780" height="70" rx="10" class="page"/><text x="50" y="309" class="label">▤ Notes.txt</text><text x="50" y="332" class="small">Indexed · ready for answers</text></g>

  <!-- 11 Connector -->
  <g transform="translate(80 590)"><rect width="840" height="400" rx="18" class="board"/><text x="30" y="38" class="label">11 · Connect source and sync result</text><text x="30" y="84" class="title">Connect source</text><rect x="30" y="106" width="225" height="215" rx="12" class="page"/><text x="50" y="138" class="label">1. Source type</text><rect x="50" y="156" width="184" height="34" rx="7" class="panel"/><text x="64" y="178" class="small">GitHub repository ▾</text><text x="50" y="222" class="label">2. Credentials</text><rect x="50" y="238" width="184" height="34" rx="7" class="panel"/><text x="64" y="260" class="small">Token stored securely</text><rect x="50" y="278" width="132" height="28" rx="7" class="accent"/><text x="70" y="297" class="small">Validate</text><rect x="285" y="106" width="495" height="215" rx="12" class="page"/><text x="310" y="140" class="label">Sync activity</text><line x1="310" y1="165" x2="750" y2="165" class="line" opacity=".25"/><text x="310" y="196" class="small">09:12 · Validation successful</text><text x="310" y="224" class="small">09:13 · 6 files found</text><text x="310" y="252" class="small">09:14 · 4 indexed, 2 queued</text><rect x="310" y="275" width="140" height="28" rx="7" class="panel"/><text x="329" y="294" class="small">View documents</text></g>

  <!-- 12 Notifications -->
  <g transform="translate(1000 590)"><rect width="840" height="400" rx="18" class="board"/><text x="30" y="38" class="label">12 · Workspace notifications</text><rect x="30" y="76" width="350" height="270" rx="14" fill="#25304a" stroke="#25304a"/><text x="55" y="112" font-family="sans-serif" font-size="17" font-weight="600" fill="#fff">Notifications</text><line x1="30" y1="130" x2="380" y2="130" stroke="#d0d5dd" opacity=".55"/><rect x="52" y="148" width="305" height="57" rx="9" fill="#34405a"/><text x="70" y="172" font-family="sans-serif" font-size="13" fill="#fff">Scan.pdf is ready</text><text x="70" y="192" font-family="sans-serif" font-size="11" fill="#d0d5dd">Company-Confirmation · now</text><rect x="52" y="218" width="305" height="57" rx="9" fill="#34405a"/><text x="70" y="242" font-family="sans-serif" font-size="13" fill="#fff">Connector sync needs attention</text><text x="70" y="262" font-family="sans-serif" font-size="11" fill="#d0d5dd">GitHub source · 12 min ago</text><text x="55" y="320" font-family="sans-serif" font-size="11" fill="#d0d5dd">Mark all as read</text><rect x="430" y="90" width="350" height="225" rx="12" class="page"/><text x="455" y="123" class="label">Notification behavior</text><text x="455" y="155" class="meta">Bell appears only in Workspace</text><text x="455" y="185" class="meta">Success and failure are actionable</text><text x="455" y="215" class="meta">Unread count is visible on the trigger</text></g>

  <!-- 13 Analytics -->
  <g transform="translate(80 1040)"><rect width="840" height="400" rx="18" class="board"/><text x="30" y="38" class="label">13 · Analytics and export</text><text x="30" y="84" class="title">Workspace analytics</text><rect x="30" y="103" width="95" height="32" rx="8" class="panel"/><text x="52" y="124" class="small">7 days</text><rect x="126" y="103" width="95" height="32" rx="8" class="accent"/><text x="143" y="124" class="small">30 days</text><rect x="652" y="103" width="130" height="32" rx="8" class="page"/><text x="671" y="124" class="small">⇩ Export ▾</text><rect x="30" y="156" width="230" height="88" rx="10" class="page"/><text x="50" y="187" class="small">Total queries</text><text x="50" y="220" class="title">248</text><rect x="280" y="156" width="230" height="88" rx="10" class="page"/><text x="300" y="187" class="small">Grounded answers</text><text x="300" y="220" class="title">96%</text><rect x="530" y="156" width="230" height="88" rx="10" class="page"/><text x="550" y="187" class="small">Failed documents</text><text x="550" y="220" class="title">02</text><rect x="30" y="270" width="730" height="85" rx="10" class="page"/><polyline points="55,332 160,307 260,318 360,290 470,301 570,275 735,292" fill="none" stroke="#7c4dcc" stroke-width="3"/><text x="48" y="294" class="small">Queries</text></g>

  <!-- 14 dialogs -->
  <g transform="translate(1000 1040)"><rect width="840" height="400" rx="18" class="board"/><text x="30" y="38" class="label">14 · Confirmation and destructive actions</text><rect x="30" y="68" width="780" height="300" rx="12" fill="#667085" opacity=".18"/><rect x="245" y="112" width="350" height="206" rx="14" class="page"/><text x="273" y="149" class="title">Delete member?</text><text x="273" y="180" class="meta">This member will lose workspace access.</text><text x="273" y="204" class="meta">Existing conversations remain retained.</text><line x1="245" y1="235" x2="595" y2="235" class="line" opacity=".2"/><rect x="361" y="258" width="92" height="32" rx="8" class="panel"/><text x="385" y="279" class="small">Cancel</text><rect x="463" y="258" width="105" height="32" rx="8" fill="#d92d20"/><text x="479" y="279" font-family="sans-serif" font-size="11" fill="#fff">Delete</text><text x="625" y="135" class="small">Same structure used for:</text><text x="625" y="162" class="small">• delete knowledge set</text><text x="625" y="189" class="small">• remove document</text><text x="625" y="216" class="small">• sign out</text></g>

  <!-- 15 assistant editor -->
  <g transform="translate(80 1490)"><rect width="840" height="400" rx="18" class="board"/><text x="30" y="38" class="label">15 · Assistant editor</text><rect x="30" y="68" width="780" height="300" rx="12" fill="#667085" opacity=".16"/><rect x="175" y="88" width="490" height="265" rx="14" class="page"/><text x="205" y="124" class="title">Edit assistant</text><text x="205" y="150" class="meta">Role, source scope and answer behavior</text><text x="205" y="184" class="small">Name</text><rect x="205" y="192" width="205" height="34" rx="7" class="panel"/><text x="430" y="184" class="small">Answer mode</text><rect x="430" y="192" width="205" height="34" rx="7" class="panel"/><text x="205" y="254" class="small">Instructions</text><rect x="205" y="262" width="430" height="44" rx="7" class="panel"/><rect x="470" y="316" width="165" height="26" rx="7" class="accent"/><text x="500" y="334" class="small">Save assistant</text></g>

  <!-- 16 profile auth -->
  <g transform="translate(1000 1490)"><rect width="840" height="400" rx="18" class="board"/><text x="30" y="38" class="label">16 · Account and authentication edge states</text><rect x="30" y="80" width="350" height="248" rx="12" class="page"/><text x="55" y="115" class="label">Change password</text><text x="55" y="145" class="small">Current password</text><rect x="55" y="153" width="300" height="31" rx="7" class="panel"/><text x="55" y="216" class="small">New password</text><rect x="55" y="224" width="300" height="31" rx="7" class="panel"/><text x="55" y="277" class="small">Password does not meet requirements</text><rect x="238" y="285" width="117" height="28" rx="7" class="accent"/><text x="260" y="304" class="small">Update</text><rect x="430" y="80" width="350" height="248" rx="12" class="page"/><text x="455" y="115" class="label">Session expired</text><text x="455" y="145" class="meta">Sign in again to continue securely.</text><rect x="455" y="177" width="155" height="30" rx="7" class="accent"/><text x="484" y="197" class="small">Sign in</text><text x="455" y="252" class="small">Failed login appears inline on Login</text><text x="455" y="277" class="small">Password never shown in notifications</text></g>

  <!-- 17 mobile drawer -->
  <g transform="translate(80 1940)"><rect width="840" height="400" rx="18" class="board"/><text x="30" y="38" class="label">17 · Mobile sidebar drawer</text><rect x="65" y="72" width="270" height="288" rx="25" class="page"/><rect x="65" y="72" width="270" height="44" rx="25" class="panel"/><text x="88" y="100" class="label">Nexora</text><text x="288" y="100" class="label">×</text><rect x="85" y="135" width="230" height="32" rx="7" class="accent"/><text x="105" y="156" class="small">＋ New conversation</text><text x="88" y="199" class="small">Navigation</text><text x="88" y="228" class="meta">▣ Workspace</text><text x="88" y="255" class="meta">▤ Knowledge base</text><text x="88" y="282" class="meta">◌ Assistants</text><text x="88" y="309" class="meta">⚙ Settings</text><rect x="380" y="80" width="370" height="250" rx="12" fill="#667085" opacity=".18"/><text x="402" y="120" class="label">Behavior</text><text x="402" y="151" class="meta">• Opens from 44×44px menu control</text><text x="402" y="180" class="meta">• Focus stays within the drawer</text><text x="402" y="209" class="meta">• Escape and backdrop close it</text><text x="402" y="238" class="meta">• Admin-only entries remain hidden</text></g>

  <!-- 18 mobile sheets -->
  <g transform="translate(1000 1940)"><rect width="840" height="400" rx="18" class="board"/><text x="30" y="38" class="label">18 · Mobile source and filter sheets</text><rect x="80" y="70" width="260" height="290" rx="25" class="page"/><rect x="80" y="70" width="260" height="130" rx="25" fill="#667085" opacity=".18"/><rect x="80" y="176" width="260" height="184" rx="20" class="page"/><rect x="176" y="187" width="68" height="5" rx="3" class="button"/><text x="105" y="225" class="label">Sources used</text><rect x="105" y="243" width="210" height="53" rx="8" class="panel"/><text x="121" y="266" class="small">▤ Company.pdf</text><text x="121" y="284" class="small">Page 2 · Chunk 1</text><rect x="105" y="306" width="210" height="30" rx="7" class="accent"/><text x="144" y="326" class="small">Open passage</text><rect x="420" y="85" width="360" height="220" rx="12" class="page"/><text x="445" y="120" class="label">Metadata filters</text><rect x="445" y="143" width="310" height="35" rx="7" class="panel"/><text x="462" y="166" class="small">All documents in set ▾</text><rect x="445" y="190" width="146" height="38" rx="8" class="accent"/><text x="470" y="214" class="small">Quick answer</text><rect x="609" y="190" width="146" height="38" rx="8" class="panel"/><text x="634" y="214" class="small">Deep research</text></g>
</svg>
